<?xml version="1.0" encoding="utf-8"?>
<!-- Generator: Adobe Illustrator 16.0.0, SVG Export Plug-In . SVG Version: 6.00 Build 0)  -->
<!DOCTYPE svg PUBLIC "-//W3C//DTD SVG 1.1//EN" "http://www.w3.org/Graphics/SVG/1.1/DTD/svg11.dtd">
<svg version="1.1" id="Layer_1" xmlns="http://www.w3.org/2000/svg" xmlns:xlink="http://www.w3.org/1999/xlink" x="0px" y="0px"
	 width="333px" height="39.484px" viewBox="0 -7.742 333 39.484" enable-background="new 0 -7.742 333 39.484" xml:space="preserve"
	>
<rect x="480.16" y="443.324" fill="#EFEFEF" width="500" height="500"/>
<g transform="rotate(0 -27.4594 119.9596)">
	<g transform="matrix(1 0 0 1 0 0)">
		<path id="id-D6z1nYkh8" fill="#898989" d="M0,4.452V-6.58h35.534V4.452H0z M13.496,30.58V3.699h8.542V30.58H13.496z
			 M57.572,31.742L57.572,31.742c-4.966,0-8.963-0.743-11.992-2.233c-3.03-1.49-5.233-3.698-6.612-6.622
			C37.59,19.966,36.901,16.336,36.901,12l0,0c0-4.335,0.688-7.963,2.066-10.887c1.379-2.921,3.582-5.128,6.612-6.618
			c3.029-1.49,7.026-2.237,11.992-2.237l0,0c4.966,0,8.964,0.747,11.993,2.237s5.233,3.697,6.611,6.618
			C77.555,4.037,78.244,7.665,78.244,12l0,0c0,4.336-0.689,7.966-2.067,10.887c-1.378,2.924-3.582,5.132-6.611,6.622
			S62.538,31.742,57.572,31.742z M57.572,20.709L57.572,20.709c2.347,0,4.374-0.24,6.082-0.724c1.709-0.484,3.029-1.355,3.964-2.613
			c0.934-1.258,1.4-3.049,1.4-5.372l0,0c0-2.322-0.467-4.112-1.4-5.37c-0.935-1.258-2.255-2.128-3.964-2.612
			c-1.708-0.484-3.735-0.727-6.082-0.727l0,0c-2.346,0-4.401,0.242-6.167,0.727s-3.144,1.354-4.134,2.612
			C46.28,7.888,45.785,9.678,45.785,12l0,0c0,2.323,0.495,4.114,1.486,5.372c0.99,1.258,2.368,2.129,4.134,2.613
			C53.171,20.469,55.227,20.709,57.572,20.709z M103.016,31.742L103.016,31.742c-4.966,0-8.963-0.743-11.993-2.233
			c-3.029-1.49-5.232-3.698-6.611-6.622c-1.378-2.921-2.066-6.551-2.066-10.887l0,0c0-4.335,0.688-7.963,2.066-10.887
			c1.379-2.921,3.582-5.128,6.611-6.618c3.03-1.49,7.027-2.237,11.993-2.237l0,0c4.966,0,8.964,0.747,11.993,2.237
			s5.233,3.697,6.611,6.618c1.378,2.924,2.067,6.552,2.067,10.887l0,0c0,4.336-0.689,7.966-2.067,10.887
			c-1.378,2.924-3.582,5.132-6.611,6.622S107.981,31.742,103.016,31.742z M103.016,20.709L103.016,20.709
			c2.347,0,4.374-0.24,6.082-0.724c1.708-0.484,3.029-1.355,3.964-2.613c0.934-1.258,1.4-3.049,1.4-5.372l0,0
			c0-2.322-0.467-4.112-1.4-5.37c-0.935-1.258-2.256-2.128-3.964-2.612s-3.735-0.727-6.082-0.727l0,0
			c-2.346,0-4.401,0.242-6.167,0.727s-3.144,1.354-4.135,2.612c-0.99,1.258-1.486,3.048-1.486,5.37l0,0
			c0,2.323,0.496,4.114,1.486,5.372c0.991,1.258,2.369,2.129,4.135,2.613C98.614,20.469,100.67,20.709,103.016,20.709z
			 M136.671-6.58l25.729,25.781l-3.178,3.078V-6.58h8.542v37.16h-8.542L133.493,5.266l3.178-3.137V30.58h-8.542V-6.58H136.671z
			 M204.152,15.078h8.884c-0.113,3.678-0.899,6.755-2.357,9.232c-1.458,2.477-3.604,4.335-6.44,5.573
			c-2.836,1.239-6.418,1.858-10.746,1.858l0,0c-3.303,0-6.264-0.299-8.884-0.899c-2.619-0.601-4.852-1.626-6.696-3.077
			c-1.846-1.452-3.258-3.436-4.237-5.951s-1.469-5.692-1.469-9.522l0,0c0-3.833,0.489-7.036,1.469-9.61s2.392-4.625,4.237-6.155
			c1.845-1.528,4.077-2.622,6.696-3.279c2.62-0.659,5.581-0.989,8.884-0.989l0,0c4.328,0,7.916,0.669,10.763,2.005
			c2.848,1.334,5,3.299,6.458,5.893c1.458,2.595,2.244,5.749,2.357,9.465l0,0h-8.884c-0.273-1.238-0.774-2.333-1.503-3.281
			c-0.729-0.947-1.822-1.694-3.28-2.235s-3.428-0.813-5.911-0.813l0,0c-2.915,0-5.284,0.3-7.106,0.899
			c-1.822,0.601-3.155,1.56-3.998,2.874c-0.843,1.317-1.264,3.061-1.264,5.228l0,0c0,1.974,0.421,3.58,1.264,4.819
			c0.843,1.238,2.176,2.147,3.998,2.729s4.191,0.869,7.106,0.869l0,0c2.483,0,4.447-0.25,5.895-0.753
			c1.446-0.505,2.534-1.191,3.263-2.062C203.378,17.023,203.88,16.086,204.152,15.078L204.152,15.078z M244.437,24.949h-23.371
			v-8.711h23.371V24.949z M222.809,30.58h-9.396L228.07-6.58h9.499l14.794,37.16h-9.396L230.291-2.69h5.091L222.809,30.58z
			 M262.409,17.284V6.251h24.054v11.033H262.409z M285.507,30.58V-6.58h8.542v37.16H285.507z M255.097,30.58V-6.58h8.542v37.16
			H255.097z M297.465,4.452V-6.58H333V4.452H297.465z M310.962,30.58V3.699h8.542V30.58H310.962z"/>
	</g>
</g>
</svg>
